<?xml version="1.0" encoding="iso-8859-1"?>
<!-- Generator: Adobe Illustrator 16.0.0, SVG Export Plug-In . SVG Version: 6.00 Build 0)  -->
<!DOCTYPE svg PUBLIC "-//W3C//DTD SVG 1.1//EN" "http://www.w3.org/Graphics/SVG/1.1/DTD/svg11.dtd">
<svg version="1.1" id="Capa_1" xmlns="http://www.w3.org/2000/svg" xmlns:xlink="http://www.w3.org/1999/xlink" x="0px" y="0px"
	 width="47.002px" height="47.002px" viewBox="0 0 47.002 47.002" style="enable-background:new 0 0 47.002 47.002;"
	 xml:space="preserve">
<g>
	<path d="M46.27,0.733c-0.977-0.977-2.559-0.977-3.535,0l-6.232,6.233c-2.694-4.174-7.501-6.965-13-6.965
		c-8.441,0-15.287,6.556-15.287,14.644c0,7.708,4.291,10.809,5.987,14.621L0.734,42.733c-0.977,0.978-0.977,2.56,0,3.535
		c0.489,0.489,1.128,0.733,1.768,0.733s1.279-0.244,1.768-0.732l11.651-11.65c0.431,0.47,0.974,0.902,1.607,1.279
		c-0.333,0.275-0.517,0.578-0.517,0.896c0,0.426,0.335,0.823,0.908,1.164c-0.539,0.335-0.852,0.721-0.852,1.133
		c0,0.415,0.32,0.804,0.872,1.141c-0.563,0.339-0.892,0.732-0.892,1.152c0,0.512,0.484,0.983,1.293,1.365
		c-0.314,0.285-0.493,0.599-0.493,0.93c0,0.979,1.524,1.812,3.669,2.142c0.375,0.698,1.14,1.182,2.031,1.182
		c0.889,0,1.652-0.48,2.03-1.176c2.161-0.327,3.703-1.163,3.703-2.146c0-0.326-0.173-0.637-0.479-0.918
		c0.825-0.384,1.32-0.859,1.32-1.377c0-0.416-0.321-0.806-0.874-1.143c0.562-0.339,0.891-0.73,0.891-1.15
		c0-0.426-0.335-0.823-0.909-1.165c0.54-0.334,0.854-0.72,0.854-1.132c0-0.329-0.2-0.642-0.557-0.924
		c1.562-0.943,2.6-2.215,2.6-3.584c0-5.591,6.663-8.037,6.663-17.643c0-0.901-0.099-1.779-0.261-2.636l7.74-7.74
		C47.247,3.292,47.247,1.71,46.27,0.733z M15.523,23.706c-1.701-2.494-3.309-4.848-3.309-9.062
		c0.001-5.868,5.064-10.643,11.288-10.643c4.409,0,8.224,2.401,10.082,5.884L17.176,26.292
		C16.656,25.372,16.078,24.519,15.523,23.706z M31.484,23.708c-1.524,2.236-3.247,4.763-3.354,8.238
		c-0.521,0.584-2.39,1.533-4.625,1.533c-2.235,0-4.104-0.949-4.625-1.533c-0.003-0.092-0.019-0.175-0.023-0.266l15.876-15.876
		C34.465,19.303,33.019,21.456,31.484,23.708z"/>
</g>
<g>
</g>
<g>
</g>
<g>
</g>
<g>
</g>
<g>
</g>
<g>
</g>
<g>
</g>
<g>
</g>
<g>
</g>
<g>
</g>
<g>
</g>
<g>
</g>
<g>
</g>
<g>
</g>
<g>
</g>
</svg>
